<svg width="18" height="18" viewBox="0 0 18 18" fill="none" xmlns="http://www.w3.org/2000/svg">
<path id="Vector" d="M2.98032 0.458984C2.3438 0.458984 1.73335 0.711841 1.28327 1.16193C0.833179 1.61202 0.580322 2.22246 0.580322 2.85898V5.25898C0.580322 5.8955 0.833179 6.50595 1.28327 6.95604C1.73335 7.40613 2.3438 7.65898 2.98032 7.65898H5.38032C6.01684 7.65898 6.62729 7.40613 7.07738 6.95604C7.52747 6.50595 7.78032 5.8955 7.78032 5.25898V2.85898C7.78032 2.22246 7.52747 1.61202 7.07738 1.16193C6.62729 0.711841 6.01684 0.458984 5.38032 0.458984H2.98032ZM2.98032 10.059C2.3438 10.059 1.73335 10.3118 1.28327 10.7619C0.833179 11.212 0.580322 11.8225 0.580322 12.459V14.859C0.580322 15.4955 0.833179 16.106 1.28327 16.556C1.73335 17.0061 2.3438 17.259 2.98032 17.259H5.38032C6.01684 17.259 6.62729 17.0061 7.07738 16.556C7.52747 16.106 7.78032 15.4955 7.78032 14.859V12.459C7.78032 11.8225 7.52747 11.212 7.07738 10.7619C6.62729 10.3118 6.01684 10.059 5.38032 10.059H2.98032ZM10.1803 2.85898C10.1803 2.22246 10.4332 1.61202 10.8833 1.16193C11.3334 0.711841 11.9438 0.458984 12.5803 0.458984H14.9803C15.6168 0.458984 16.2273 0.711841 16.6774 1.16193C17.1275 1.61202 17.3803 2.22246 17.3803 2.85898V5.25898C17.3803 5.8955 17.1275 6.50595 16.6774 6.95604C16.2273 7.40613 15.6168 7.65898 14.9803 7.65898H12.5803C11.9438 7.65898 11.3334 7.40613 10.8833 6.95604C10.4332 6.50595 10.1803 5.8955 10.1803 5.25898V2.85898ZM13.7803 10.059C14.0986 10.059 14.4038 10.1854 14.6289 10.4105C14.8539 10.6355 14.9803 10.9407 14.9803 11.259V12.459H16.1803C16.4986 12.459 16.8038 12.5854 17.0289 12.8105C17.2539 13.0355 17.3803 13.3407 17.3803 13.659C17.3803 13.9772 17.2539 14.2825 17.0289 14.5075C16.8038 14.7326 16.4986 14.859 16.1803 14.859H14.9803V16.059C14.9803 16.3772 14.8539 16.6825 14.6289 16.9075C14.4038 17.1326 14.0986 17.259 13.7803 17.259C13.4621 17.259 13.1568 17.1326 12.9318 16.9075C12.7068 16.6825 12.5803 16.3772 12.5803 16.059V14.859H11.3803C11.0621 14.859 10.7568 14.7326 10.5318 14.5075C10.3068 14.2825 10.1803 13.9772 10.1803 13.659C10.1803 13.3407 10.3068 13.0355 10.5318 12.8105C10.7568 12.5854 11.0621 12.459 11.3803 12.459H12.5803V11.259C12.5803 10.9407 12.7068 10.6355 12.9318 10.4105C13.1568 10.1854 13.4621 10.059 13.7803 10.059Z" fill="black"/>
</svg>
