<svg width="24" height="25" viewBox="0 0 24 25" fill="none" xmlns="http://www.w3.org/2000/svg">
<g id="Frame" clip-path="url(#clip0_68_10)">
<path id="Vector" d="M6.33093 8.5H17.6699C17.9583 8.49997 18.2433 8.56229 18.5053 8.6827C18.7673 8.80311 19.0002 8.97876 19.188 9.1976C19.3758 9.41645 19.514 9.67331 19.5932 9.95059C19.6724 10.2279 19.6908 10.519 19.6469 10.804L18.3919 18.956C18.283 19.6644 17.924 20.3105 17.3799 20.7771C16.8359 21.2438 16.1427 21.5002 15.4259 21.5H8.57393C7.85733 21.5 7.16441 21.2434 6.62056 20.7768C6.07671 20.3102 5.71785 19.6643 5.60893 18.956L4.35393 10.804C4.3101 10.519 4.32842 10.2279 4.40763 9.95059C4.48685 9.67331 4.62509 9.41645 4.81287 9.1976C5.00066 8.97876 5.23355 8.80311 5.49557 8.6827C5.7576 8.56229 6.04256 8.49997 6.33093 8.5Z" stroke="white" stroke-width="1.5" stroke-linecap="round" stroke-linejoin="round"/>
<path id="Vector_2" d="M9 11.5V6.5C9 5.70435 9.31607 4.94129 9.87868 4.37868C10.4413 3.81607 11.2044 3.5 12 3.5C12.7956 3.5 13.5587 3.81607 14.1213 4.37868C14.6839 4.94129 15 5.70435 15 6.5V11.5" stroke="white" stroke-width="1.5" stroke-linecap="round" stroke-linejoin="round"/>
</g>
<defs>
<clipPath id="clip0_68_10">
<rect width="24" height="24" fill="white" transform="translate(0 0.5)"/>
</clipPath>
</defs>
</svg>
