<svg width="21" height="20" viewBox="0 0 21 20" fill="none" xmlns="http://www.w3.org/2000/svg">
<g id="Frame">
<path id="Vector" d="M16.0692 15.2825H13.8484V11.8017C13.8484 10.9717 13.8317 9.90333 12.69 9.90333C11.5325 9.90333 11.3559 10.8067 11.3559 11.7408V15.2825H9.13421V8.125H11.2675V9.1H11.2967C11.595 8.53833 12.32 7.94417 13.4034 7.94417C15.6534 7.94417 16.07 9.42583 16.07 11.3533V15.2825H16.0692ZM6.62587 7.14583C6.45634 7.14605 6.28842 7.11281 6.13176 7.04801C5.97509 6.9832 5.83276 6.88812 5.71292 6.7682C5.59308 6.64828 5.49808 6.50588 5.43338 6.34918C5.36868 6.19247 5.33554 6.02454 5.33587 5.855C5.33604 5.59986 5.41186 5.3505 5.55374 5.13846C5.69562 4.92641 5.8972 4.76119 6.13298 4.66371C6.36876 4.56623 6.62815 4.54085 6.87836 4.59078C7.12856 4.64072 7.35834 4.76373 7.53863 4.94426C7.71892 5.12478 7.84163 5.35472 7.89125 5.60498C7.94086 5.85525 7.91515 6.11461 7.81736 6.35026C7.71957 6.58592 7.5541 6.78728 7.34186 6.92889C7.12963 7.0705 6.88101 7.146 6.62587 7.14583ZM7.73921 15.2825H5.51171V8.125H7.74004V15.2825H7.73921ZM17.1817 2.5H4.39754C3.78421 2.5 3.29004 2.98333 3.29004 3.58083V16.4192C3.29004 17.0167 3.78504 17.5 4.39671 17.5H17.1784C17.79 17.5 18.29 17.0167 18.29 16.4192V3.58083C18.29 2.98333 17.79 2.5 17.1784 2.5H17.1817Z" fill="black" fill-opacity="0.5"/>
</g>
</svg>
