<svg width="25" height="25" viewBox="0 0 25 25" fill="none" xmlns="http://www.w3.org/2000/svg">
<g id="ph:house-fill">
<path id="Vector" d="M21.02 11.6918V20.359C21.02 20.7568 20.862 21.1384 20.5807 21.4197C20.2994 21.701 19.9178 21.859 19.52 21.859H15.77C15.3722 21.859 14.9907 21.701 14.7094 21.4197C14.4281 21.1384 14.27 20.7568 14.27 20.359V16.609C14.27 16.4101 14.191 16.2193 14.0504 16.0787C13.9097 15.938 13.7189 15.859 13.52 15.859H10.52C10.3211 15.859 10.1303 15.938 9.98969 16.0787C9.84904 16.2193 9.77002 16.4101 9.77002 16.609V20.359C9.77002 20.7568 9.61198 21.1384 9.33068 21.4197C9.04938 21.701 8.66784 21.859 8.27002 21.859H4.52002C4.12219 21.859 3.74066 21.701 3.45936 21.4197C3.17805 21.1384 3.02002 20.7568 3.02002 20.359V11.6918C3.01999 11.4842 3.06305 11.2789 3.14648 11.0888C3.22991 10.8987 3.35189 10.728 3.50471 10.5874L11.0047 3.51119L11.015 3.50088C11.2912 3.24975 11.651 3.1106 12.0242 3.1106C12.3975 3.1106 12.7573 3.24975 13.0335 3.50088C13.0367 3.50454 13.0401 3.50799 13.0438 3.51119L20.5438 10.5874C20.6951 10.7287 20.8155 10.8997 20.8974 11.0898C20.9794 11.2799 21.0211 11.4848 21.02 11.6918Z" fill="black"/>
</g>
</svg>
