<svg width="21" height="20" viewBox="0 0 21 20" fill="none" xmlns="http://www.w3.org/2000/svg">
<g id="Frame">
<path id="Vector" d="M19.2583 4.71327C18.6221 4.99468 17.9474 5.1795 17.2566 5.26161C17.9848 4.82613 18.5297 4.14078 18.79 3.33327C18.1066 3.73994 17.3575 4.02494 16.5766 4.17911C16.0521 3.61792 15.3569 3.24574 14.5991 3.12043C13.8413 2.99511 13.0632 3.12368 12.386 3.48615C11.7088 3.84862 11.1703 4.42468 10.8542 5.12477C10.5382 5.82486 10.4623 6.60976 10.6383 7.35744C9.25255 7.28798 7.8969 6.92788 6.65937 6.30049C5.42183 5.67311 4.33007 4.79248 3.45496 3.71577C3.1452 4.24781 2.98242 4.85263 2.98329 5.46827C2.98329 6.67661 3.59829 7.74411 4.53329 8.36911C3.97997 8.35169 3.43882 8.20226 2.95496 7.93327V7.9766C2.95513 8.78136 3.2336 9.56129 3.74317 10.1842C4.25273 10.807 4.96203 11.2345 5.75079 11.3941C5.23714 11.5333 4.69855 11.5538 4.17579 11.4541C4.39818 12.1468 4.83163 12.7526 5.41545 13.1867C5.99928 13.6208 6.70423 13.8614 7.43163 13.8749C6.70869 14.4427 5.88094 14.8624 4.99569 15.1101C4.11045 15.3577 3.18507 15.4285 2.27246 15.3183C3.86554 16.3428 5.72004 16.8867 7.61413 16.8849C14.025 16.8849 17.5308 11.5741 17.5308 6.96827C17.5308 6.81827 17.5266 6.66661 17.52 6.51827C18.2023 6.02508 18.7913 5.41412 19.2591 4.71411L19.2583 4.71327Z" fill="black" fill-opacity="0.5"/>
</g>
</svg>
