<svg width="21" height="20" viewBox="0 0 21 20" fill="none" xmlns="http://www.w3.org/2000/svg">
<g id="Frame">
<path id="Vector" d="M18.7426 5.41492C19.1235 6.89992 19.1235 9.99992 19.1235 9.99992C19.1235 9.99992 19.1235 13.0999 18.7426 14.5849C18.531 15.4058 17.9118 16.0516 17.1276 16.2699C15.7035 16.6666 10.7901 16.6666 10.7901 16.6666C10.7901 16.6666 5.87929 16.6666 4.45262 16.2699C3.66512 16.0483 3.04679 15.4033 2.83762 14.5849C2.45679 13.0999 2.45679 9.99992 2.45679 9.99992C2.45679 9.99992 2.45679 6.89992 2.83762 5.41492C3.04929 4.59409 3.66845 3.94825 4.45262 3.72992C5.87929 3.33325 10.7901 3.33325 10.7901 3.33325C10.7901 3.33325 15.7035 3.33325 17.1276 3.72992C17.9151 3.95159 18.5335 4.59659 18.7426 5.41492ZM9.12345 12.9166L14.1235 9.99992L9.12345 7.08325V12.9166Z" fill="black" fill-opacity="0.5"/>
</g>
</svg>
