<svg width="28" height="29" viewBox="0 0 28 29" fill="none" xmlns="http://www.w3.org/2000/svg">
<g id="Group 1">
<path id="Vector" d="M24.8262 1.13153H21.4064C20.3511 1.13153 19.4957 1.98694 19.4957 3.04222V6.46204C19.4957 7.51731 20.3511 8.37278 21.4064 8.37278H24.8262C25.8814 8.37278 26.7369 7.51731 26.7369 6.46204V3.04222C26.7369 1.98694 25.8814 1.13153 24.8262 1.13153Z" fill="#5CC4CD"/>
<path id="Vector_2" d="M11.4338 8.57659H14.4369C15.6795 8.64722 16.8616 9.13679 17.7903 9.96552L17.9029 10.0907C18.7359 11.0166 19.2262 12.2003 19.2918 13.4441V16.4346C19.2918 16.9556 19.4988 17.4553 19.8672 17.8237C20.2356 18.1921 20.7353 18.3991 21.2563 18.3991H24.7724C25.2934 18.3991 25.7931 18.1921 26.1615 17.8237C26.5299 17.4553 26.7369 16.9556 26.7369 16.4346V12.9186C26.7369 12.3975 26.5299 11.8979 26.1615 11.5295C25.7931 11.1611 25.2934 10.9541 24.7724 10.9541H21.7818C20.5381 10.8884 19.3544 10.3982 18.4284 9.56514L18.3033 9.45251C17.4729 8.5249 16.983 7.34224 16.9144 6.09908V3.09603C16.9144 2.57505 16.7074 2.07534 16.339 1.70693C15.9705 1.33852 15.4709 1.13153 14.9499 1.13153H11.4338C10.9128 1.13153 10.4131 1.33852 10.0447 1.70693C9.67629 2.07534 9.4693 2.57505 9.4693 3.09603V6.61215C9.4693 7.13314 9.67629 7.63278 10.0447 8.0012C10.4131 8.36961 10.9128 8.57659 11.4338 8.57659Z" fill="#4E48E0"/>
<path id="Vector_3" d="M25.3355 20.8873H22.3607C21.1224 20.8069 19.9491 20.2932 19.0388 19.4327L18.7042 19.0913C17.879 18.1553 17.3933 16.9588 17.3283 15.7016V12.666C17.325 12.1404 17.119 11.6373 16.7547 11.2656C16.3905 10.8939 15.8974 10.6836 15.3823 10.6803H12.4074C11.1793 10.6276 10.0064 10.1452 9.0856 9.31432L8.75094 8.97282C7.92571 8.03686 7.44011 6.84038 7.37505 5.58313V2.5603C7.37505 2.03364 7.17001 1.52853 6.8051 1.15611C6.44015 0.783741 5.94518 0.574524 5.42904 0.574524H1.946C1.42992 0.574524 0.934901 0.783741 0.569998 1.15611C0.205039 1.52853 0 2.03364 0 2.5603V6.11436C0 6.64102 0.205039 7.14613 0.569998 7.51849C0.934901 7.89092 1.42992 8.10013 1.946 8.10013H4.90845C6.15935 8.15851 7.35137 8.65933 8.27992 9.51669L8.61458 9.8582C9.43719 10.7958 9.92241 11.9913 9.99042 13.2478V16.2834C9.99365 16.809 10.1997 17.3122 10.564 17.6838C10.9282 18.0555 11.4213 18.2658 11.9364 18.2691H14.9112C16.1297 18.347 17.2869 18.8415 18.196 19.673L18.5306 20.0146C19.3532 20.9522 19.8385 22.1477 19.9065 23.4042V26.4398C19.9097 26.9654 20.1158 27.4685 20.48 27.8402C20.8443 28.2119 21.3374 28.4221 21.8525 28.4255H25.3479C25.863 28.4221 26.3561 28.2119 26.7204 27.8402C27.0846 27.4685 27.2907 26.9654 27.2939 26.4398V22.873C27.2907 22.3452 27.0829 21.8401 26.716 21.4681C26.3491 21.0961 25.8528 20.8872 25.3355 20.8873Z" fill="#4E48E0"/>
<path id="Vector_4" d="M5.74058 20.6272H2.05768C0.921254 20.6272 0 21.4827 0 22.5379V25.9578C0 27.013 0.921254 27.8684 2.05768 27.8684H5.74058C6.87701 27.8684 7.79827 27.013 7.79827 25.9578V22.5379C7.79827 21.4827 6.87701 20.6272 5.74058 20.6272Z" fill="#5CC4CD"/>
<path id="Vector_5" d="M15.3031 20.4233H12.3125C11.0688 20.3577 9.88509 19.8675 8.9591 19.0345L8.83399 18.9218C7.9983 17.9877 7.50812 16.7952 7.44506 15.5434V12.5403C7.43888 12.0343 7.23769 11.5502 6.88337 11.1889C6.52905 10.8276 6.04895 10.617 5.54312 10.6009H1.96449C1.44346 10.6009 0.943812 10.8078 0.575399 11.1763C0.206987 11.5447 0 12.0443 0 12.5654V16.0814C0 16.6025 0.206987 17.1021 0.575399 17.4706C0.943812 17.839 1.44346 18.0459 1.96449 18.0459H4.96755C6.21021 18.1166 7.39231 18.6061 8.32098 19.4349L8.43361 19.56C9.26663 20.4859 9.75686 21.6696 9.82248 22.9134V25.9039C9.82248 26.163 9.87372 26.4194 9.97321 26.6586C10.0727 26.8977 10.2186 27.1149 10.4023 27.2975C10.586 27.48 10.8041 27.6245 11.0439 27.7225C11.2837 27.8204 11.5405 27.8701 11.7995 27.8684H15.3031C15.8241 27.8684 16.3238 27.6615 16.6922 27.2931C17.0606 26.9246 17.2676 26.4249 17.2676 25.9039V22.3878C17.2676 21.8669 17.0606 21.3672 16.6922 20.9987C16.3238 20.6303 15.8241 20.4233 15.3031 20.4233Z" fill="#4E48E0"/>
</g>
</svg>
